
      <svg data-logo="logo" xmlns="http://www.w3.org/2000/svg" viewBox="0 0 202 42">
        <g id="logogram" transform="translate(0, 1) rotate(0) "><path d="M13.0964 20.3536L17.6262 22.4473L17.046 27.6527L8.94876 36.8282C4.2486 33.8023 0.898178 28.8615 0 23.108L13.0964 20.3536Z" fill="#15E3FF"/><path d="M25.183 25.94L31.2414 36.3789C27.992 38.6605 24.0331 40 19.7612 40C18.3744 40 17.0206 39.8587 15.7133 39.59L17.046 27.6527L20.4765 23.7656L25.183 25.94Z" fill="#348DFC"/><path d="M39.1022 14.881C39.5332 16.5143 39.763 18.2294 39.763 19.9982C39.763 24.1145 38.5192 27.9403 36.3874 31.1207L25.184 25.9405L22.5551 21.4123L25.8574 17.6692L39.1022 14.881Z" fill="#FD4873"/><path d="M17.046 27.6524L17.0458 27.6527L17.1686 26.552L17.046 27.6524Z" fill="#FFC700"/><path d="M20.132 0C26.1505 0.109415 31.5194 2.877 35.1148 7.17842L25.8561 17.6694L20.9792 18.6959L18.519 14.4574L20.132 0Z" fill="#FFC700"/><path d="M18.519 14.4574L17.9745 19.3269L13.0991 20.353L0.514709 14.5347C2.09964 8.94044 6.05794 4.3436 11.2327 1.9007L18.519 14.4574Z" fill="#00E7B9"/></g>
        <g id="logotype" transform="translate(46, 8.5)"><path fill="#f59e0b" d="M11.04 25L7.54 25L7.54 0.15L13.77 0.15L16.54 20.06L16.61 20.06L19.37 0.15L25.39 0.15L25.39 25L21.79 25L21.79 3.79L21.68 3.75L18.43 25L14.44 25L11.18 3.79L11.04 3.79L11.04 25ZM32.32 25L28.40 25L28.40 0.15L32.32 0.15L32.32 9.25Q32.99 7.95 34.00 7.36Q35.02 6.76 36.14 6.76L36.14 6.76Q37.99 6.76 39.09 8.02Q40.20 9.28 40.20 11.84L40.20 11.84L40.20 25L36.24 25L36.24 12.50Q36.24 11.07 35.77 10.47Q35.30 9.88 34.42 9.88L34.42 9.88Q33.58 9.88 32.95 10.46Q32.32 11.03 32.32 12.57L32.32 12.57L32.32 25ZM48.00 25.42L48.00 25.42Q44.92 25.42 43.54 23.67Q42.16 21.92 42.19 19.23L42.19 19.23L45.52 19.12Q45.55 22.52 48.00 22.52L48.00 22.52Q49.02 22.52 49.54 21.97Q50.07 21.43 50.07 20.55L50.07 20.55Q50.07 19.61 49.47 19.03Q48.88 18.45 47.86 17.89L47.86 17.89L46.25 17.02Q44.40 16.00 43.49 14.71Q42.58 13.41 42.58 11.66L42.58 11.66Q42.58 9.39 44.08 8.08Q45.59 6.76 47.93 6.76L47.93 6.76Q50.80 6.76 52.11 8.34Q53.43 9.91 53.36 12.64L53.36 12.64L50.03 12.71Q50.00 11.07 49.45 10.37Q48.91 9.67 47.97 9.67L47.97 9.67Q46.99 9.67 46.51 10.16Q46.04 10.65 46.04 11.38L46.04 11.38Q46.04 12.22 46.51 12.77Q46.99 13.31 48.00 13.90L48.00 13.90L50.07 15.09Q51.78 16.07 52.69 17.20Q53.60 18.31 53.60 20.24L53.60 20.24Q53.60 22.59 52.15 24.00Q50.70 25.42 48.00 25.42ZM63.23 25L58.57 25L54.23 7.18L58.19 7.18L60.98 21.15L63.75 7.18L67.56 7.18L63.23 25ZM74.57 25.42L74.57 25.42Q72.75 25.42 71.33 24.53Q69.91 23.63 69.12 21.59Q68.34 19.54 68.34 16.11L68.34 16.11Q68.34 12.68 69.14 10.63Q69.95 8.58 71.35 7.67Q72.75 6.76 74.57 6.76L74.57 6.76Q76.56 6.76 77.75 7.67Q78.94 8.58 79.52 10.07Q80.10 11.56 80.20 13.29Q80.31 15.02 80.17 16.67L80.17 16.67L72.26 16.67L72.26 17.93Q72.26 20.48 72.87 21.46Q73.48 22.45 74.64 22.45L74.64 22.45Q75.72 22.45 76.16 21.57Q76.60 20.70 76.81 18.63L76.81 18.63L80.27 18.91Q80.06 22.41 78.49 23.91Q76.91 25.42 74.57 25.42ZM72.26 14.08L72.26 14.08L72.26 14.18L76.77 14.18L76.77 13.97Q76.77 11.49 76.25 10.58Q75.72 9.67 74.64 9.67L74.64 9.67Q73.52 9.67 72.89 10.63Q72.26 11.59 72.26 14.08ZM86.57 25L82.65 25L82.65 7.18L86.54 7.18L86.54 9.32Q87.17 7.99 88.20 7.38Q89.23 6.76 90.39 6.76L90.39 6.76Q92.24 6.76 93.33 8.02Q94.41 9.28 94.41 11.84L94.41 11.84L94.41 25L90.49 25L90.49 12.50Q90.49 11.07 90.02 10.47Q89.55 9.88 88.67 9.88L88.67 9.88Q87.83 9.88 87.20 10.46Q86.57 11.03 86.57 12.57L86.57 12.57L86.57 25ZM102.29 25.42L102.29 25.42Q100.22 25.42 99.12 24.32Q98.02 23.21 98.02 21.01L98.02 21.01L98.02 10.16L96.13 10.16L96.13 7.18L98.16 7.18L98.61 2.60L101.94 2.60L101.94 7.18L105.02 7.18L105.02 10.16L101.94 10.16L101.94 20.24Q101.94 21.32 102.43 21.75Q102.92 22.16 103.69 22.16L103.69 22.16Q104.04 22.16 104.40 22.13Q104.77 22.09 105.26 21.95L105.26 21.95L105.26 24.89Q103.79 25.42 102.29 25.42ZM111.07 25.42L111.07 25.42Q109.36 25.42 108.22 24.23Q107.08 23.04 107.08 20.38L107.08 20.38L107.08 7.18L111.00 7.18L111.00 19.68Q111.00 21.22 111.49 21.76Q111.98 22.30 112.79 22.30L112.79 22.30Q113.56 22.30 114.19 21.75Q114.82 21.18 114.82 19.68L114.82 19.68L114.82 7.18L118.74 7.18L118.74 25L114.85 25L114.85 22.93Q114.22 24.23 113.24 24.82Q112.26 25.42 111.07 25.42ZM125.49 25L121.57 25L121.57 7.18L125.46 7.18L125.46 9.56Q126.02 8.09 126.91 7.46Q127.80 6.83 128.78 6.83L128.78 6.83Q129.03 6.83 129.31 6.87Q129.59 6.90 129.90 7.01L129.90 7.01L129.90 10.51Q128.68 10.37 127.68 10.53Q126.68 10.68 126.09 11.40Q125.49 12.12 125.49 13.69L125.49 13.69L125.49 25ZM136.69 25.42L136.69 25.42Q134.87 25.42 133.45 24.53Q132.04 23.63 131.25 21.59Q130.46 19.54 130.46 16.11L130.46 16.11Q130.46 12.68 131.27 10.63Q132.07 8.58 133.47 7.67Q134.87 6.76 136.69 6.76L136.69 6.76Q138.69 6.76 139.88 7.67Q141.07 8.58 141.64 10.07Q142.22 11.56 142.33 13.29Q142.43 15.02 142.29 16.67L142.29 16.67L134.38 16.67L134.38 17.93Q134.38 20.48 134.99 21.46Q135.61 22.45 136.76 22.45L136.76 22.45Q137.85 22.45 138.28 21.57Q138.72 20.70 138.93 18.63L138.93 18.63L142.40 18.91Q142.19 22.41 140.61 23.91Q139.04 25.42 136.69 25.42ZM134.38 14.08L134.38 14.08L134.38 14.18L138.90 14.18L138.90 13.97Q138.90 11.49 138.37 10.58Q137.85 9.67 136.76 9.67L136.76 9.67Q135.64 9.67 135.01 10.63Q134.38 11.59 134.38 14.08ZM149.82 25.42L149.82 25.42Q146.74 25.42 145.35 23.67Q143.97 21.92 144.01 19.23L144.01 19.23L147.33 19.12Q147.37 22.52 149.82 22.52L149.82 22.52Q150.83 22.52 151.36 21.97Q151.88 21.43 151.88 20.55L151.88 20.55Q151.88 19.61 151.29 19.03Q150.69 18.45 149.68 17.89L149.68 17.89L148.07 17.02Q146.21 16.00 145.30 14.71Q144.39 13.41 144.39 11.66L144.39 11.66Q144.39 9.39 145.90 8.08Q147.40 6.76 149.75 6.76L149.75 6.76Q152.62 6.76 153.93 8.34Q155.24 9.91 155.17 12.64L155.17 12.64L151.85 12.71Q151.81 11.07 151.27 10.37Q150.73 9.67 149.78 9.67L149.78 9.67Q148.80 9.67 148.33 10.16Q147.86 10.65 147.86 11.38L147.86 11.38Q147.86 12.22 148.33 12.77Q148.80 13.31 149.82 13.90L149.82 13.90L151.88 15.09Q153.60 16.07 154.51 17.20Q155.42 18.31 155.42 20.24L155.42 20.24Q155.42 22.59 153.96 24.00Q152.51 25.42 149.82 25.42Z"/></g>
        
      </svg>
    